# Blender v2.79 (sub 0) OBJ File: 'ParkBench.blend'
# www.blender.org
o Cube.001
v 1.600000 0.000000 0.600000
v 1.600000 0.900000 0.100000
v 1.600000 0.000000 0.500000
v 1.600000 0.900000 0.000000
v 1.800000 0.000000 0.600000
v 1.800000 0.900000 0.100000
v 1.800000 0.000000 0.500000
v 1.800000 0.900000 0.000000
v -1.600000 0.000000 0.600000
v -1.600000 0.900000 0.100000
v -1.600000 0.000000 0.500000
v -1.600000 0.900000 0.000000
v -1.800000 0.000000 0.600000
v -1.800000 0.900000 0.100000
v -1.800000 0.000000 0.500000
v -1.800000 0.900000 0.000000
v 1.600000 0.000000 -0.600000
v 1.600000 0.900000 -0.100000
v 1.600000 0.000000 -0.500000
v 1.600000 0.900000 0.000000
v 1.800000 0.000000 -0.600000
v 1.800000 0.900000 -0.100000
v 1.800000 0.000000 -0.500000
v 1.800000 0.900000 0.000000
v -1.600000 0.000000 -0.600000
v -1.600000 0.900000 -0.100000
v -1.600000 0.000000 -0.500000
v -1.600000 0.900000 0.000000
v -1.800000 0.000000 -0.600000
v -1.800000 0.900000 -0.100000
v -1.800000 0.000000 -0.500000
v -1.800000 0.900000 0.000000
vt 0.599969 0.845760
vt 0.586390 0.764514
vt 0.599969 0.760492
vt 0.586390 0.849783
vt 0.555323 0.764514
vt 0.599969 0.845760
vt 0.613547 0.764514
vt 0.613547 0.849783
vt 0.524256 0.764514
vt 0.555323 0.849783
vt 0.524256 0.849783
vt 0.586390 0.760492
vt 0.555323 0.760492
vt 0.524256 0.760492
vt 0.586390 0.764514
vt 0.599969 0.845760
vt 0.599969 0.760492
vt 0.555323 0.764514
vt 0.586390 0.849783
vt 0.599969 0.845760
vt 0.613547 0.764514
vt 0.599969 0.760492
vt 0.555323 0.849783
vt 0.524256 0.764514
vt 0.524256 0.849783
vt 0.586390 0.760492
vt 0.555323 0.760492
vt 0.524256 0.760492
vt 0.586390 0.764514
vt 0.599969 0.845760
vt 0.599969 0.760492
vt 0.555323 0.764514
vt 0.586390 0.849783
vt 0.599969 0.845760
vt 0.613547 0.764514
vt 0.599969 0.760492
vt 0.555323 0.849783
vt 0.524256 0.764514
vt 0.524256 0.849783
vt 0.586390 0.760492
vt 0.555323 0.760492
vt 0.524256 0.760492
vt 0.599969 0.845760
vt 0.586390 0.764514
vt 0.599969 0.760492
vt 0.586390 0.849783
vt 0.555323 0.764514
vt 0.599969 0.845760
vt 0.613547 0.764514
vt 0.613547 0.849783
vt 0.524256 0.764514
vt 0.555323 0.849783
vt 0.524256 0.849783
vt 0.586390 0.760492
vt 0.555323 0.760492
vt 0.524256 0.760492
vt 0.555323 0.849783
vt 0.599969 0.760492
vt 0.555323 0.764514
vt 0.555323 0.760492
vt 0.555323 0.849783
vt 0.613547 0.849783
vt 0.555323 0.764514
vt 0.555323 0.760492
vt 0.555323 0.849783
vt 0.613547 0.849783
vt 0.555323 0.764514
vt 0.555323 0.760492
vt 0.555323 0.849783
vt 0.599969 0.760492
vt 0.555323 0.764514
vt 0.555323 0.760492
vn -1.0000 -0.0000 0.0000
vn 0.0000 -0.4856 -0.8742
vn 1.0000 0.0000 0.0000
vn 0.0000 0.4856 0.8742
vn 0.0000 -1.0000 0.0000
vn 0.0000 1.0000 0.0000
vn 0.0000 -0.4856 0.8742
vn 0.0000 0.4856 -0.8742
s off
f 2/1/1 3/2/1 1/3/1
f 4/4/2 7/5/2 3/2/2
f 7/6/3 6/7/3 5/8/3
f 6/9/4 1/10/4 5/11/4
f 7/5/5 1/12/5 3/2/5
f 4/13/6 6/9/6 8/14/6
f 11/15/3 10/16/3 9/17/3
f 15/18/2 12/19/2 11/15/2
f 15/20/1 14/21/1 16/22/1
f 9/23/4 14/24/4 13/25/4
f 9/26/5 15/18/5 11/15/5
f 14/24/6 12/27/6 16/28/6
f 19/29/1 18/30/1 17/31/1
f 23/32/7 20/33/7 19/29/7
f 23/34/3 22/35/3 24/36/3
f 17/37/8 22/38/8 21/39/8
f 17/40/5 23/32/5 19/29/5
f 22/38/6 20/41/6 24/42/6
f 26/43/3 27/44/3 25/45/3
f 28/46/7 31/47/7 27/44/7
f 31/48/1 30/49/1 29/50/1
f 30/51/8 25/52/8 29/53/8
f 31/47/5 25/54/5 27/44/5
f 28/55/6 30/51/6 32/56/6
f 2/1/1 4/4/1 3/2/1
f 4/4/2 8/57/2 7/5/2
f 7/6/3 8/58/3 6/7/3
f 6/9/4 2/59/4 1/10/4
f 7/5/5 5/60/5 1/12/5
f 4/13/6 2/59/6 6/9/6
f 11/15/3 12/19/3 10/16/3
f 15/18/2 16/61/2 12/19/2
f 15/20/1 13/62/1 14/21/1
f 9/23/4 10/63/4 14/24/4
f 9/26/5 13/64/5 15/18/5
f 14/24/6 10/63/6 12/27/6
f 19/29/1 20/33/1 18/30/1
f 23/32/7 24/65/7 20/33/7
f 23/34/3 21/66/3 22/35/3
f 17/37/8 18/67/8 22/38/8
f 17/40/5 21/68/5 23/32/5
f 22/38/6 18/67/6 20/41/6
f 26/43/3 28/46/3 27/44/3
f 28/46/7 32/69/7 31/47/7
f 31/48/1 32/70/1 30/49/1
f 30/51/8 26/71/8 25/52/8
f 31/47/5 29/72/5 25/54/5
f 28/55/6 26/71/6 30/51/6
o BezierCurve_BezierCurve.005
v -0.000000 1.000000 0.600000
v -0.000001 0.997876 0.495364
v -0.000001 0.992024 0.409322
v -0.000002 0.983223 0.338820
v -0.000002 0.972253 0.280806
v -0.000003 0.959895 0.232228
v -0.000004 0.946927 0.190034
v -0.000004 0.934130 0.151172
v -0.000004 0.922284 0.112588
v -0.000004 0.912168 0.071232
v -0.000003 0.904562 0.024050
v -0.000002 0.900246 -0.032010
v 0.000000 0.899999 -0.099999
v 0.000002 0.900010 -0.154139
v 0.000003 0.899260 -0.205001
v 0.000003 0.901160 -0.252888
v 0.000002 0.909118 -0.298102
v 0.000001 0.926544 -0.340947
v 0.000000 0.956847 -0.381726
v -0.000001 1.003437 -0.420743
v -0.000001 1.069721 -0.458300
v -0.000002 1.159111 -0.494701
v -0.000002 1.275014 -0.530249
v -0.000001 1.420841 -0.565247
v 0.000000 1.599999 -0.599999
l 33 34
l 34 35
l 35 36
l 36 37
l 37 38
l 38 39
l 39 40
l 40 41
l 41 42
l 42 43
l 43 44
l 44 45
l 45 46
l 46 47
l 47 48
l 48 49
l 49 50
l 50 51
l 51 52
l 52 53
l 53 54
l 54 55
l 55 56
l 56 57
o Cube
v 2.000000 0.972272 0.501168
v 2.000000 0.977114 0.704146
v -2.000001 0.977114 0.704145
v -2.000000 0.972272 0.501181
v 2.000001 1.022221 0.498924
v 1.999998 1.027114 0.704146
v -2.000001 1.027114 0.704145
v -2.000001 1.022222 0.498937
v 1.999997 0.927059 0.211851
v 1.999999 0.965570 0.402955
v -2.000002 0.965572 0.402986
v -2.000003 0.927063 0.211902
v 1.999997 0.974973 0.197559
v 1.999997 1.015292 0.397684
v -2.000002 1.015293 0.397715
v -2.000004 0.974977 0.197610
v 2.000000 0.875104 -0.088613
v 1.999995 0.897608 0.115624
v -2.000005 0.897593 0.115615
v -2.000000 0.875073 -0.088733
v 2.000001 0.925102 -0.089040
v 1.999994 0.945906 0.102690
v -2.000005 0.945892 0.102681
v -2.000000 0.925071 -0.089161
v 2.000000 0.935207 -0.391053
v 2.000002 0.875080 -0.189414
v -1.999998 0.875049 -0.189461
v -1.999999 0.935165 -0.390999
v 2.000001 0.973095 -0.358427
v 2.000001 0.925067 -0.188287
v -1.999999 0.925036 -0.188334
v -1.999999 0.973054 -0.358373
v 1.999998 1.208497 -0.536011
v 1.999999 1.018886 -0.457458
v -2.000002 1.018861 -0.457417
v -2.000001 1.208506 -0.535984
v 2.000000 1.223514 -0.488319
v 1.999998 1.044843 -0.414724
v -2.000002 1.044818 -0.414682
v -2.000002 1.223523 -0.488293
v 1.999999 1.502685 -0.606602
v 1.999998 1.306004 -0.563187
v -2.000003 1.306026 -0.563164
v -2.000000 1.502723 -0.606582
v 2.000000 1.512357 -0.557546
v 1.999997 1.318567 -0.514791
v -2.000003 1.318588 -0.514768
v -2.000001 1.512395 -0.557527
v 2.000002 1.806107 -0.665454
v 2.000000 1.601585 -0.625782
v -2.000001 1.601629 -0.625764
v -1.999998 1.806151 -0.665436
v 2.000004 1.814789 -0.616213
v 2.000000 1.610268 -0.576542
v -2.000001 1.610312 -0.576524
v -1.999998 1.814833 -0.616195
v 2.000005 2.112889 -0.724961
v 2.000003 1.908368 -0.685289
v -1.999998 1.908412 -0.685271
v -1.999995 2.112933 -0.724943
v 2.000006 2.121571 -0.675720
v 2.000002 1.917050 -0.636049
v -1.999998 1.917094 -0.636031
v -1.999995 2.121616 -0.675702
vt 0.502417 0.965377
vt 0.389069 0.924160
vt 0.502417 0.924159
vt 0.389069 0.924159
vt 0.502417 0.882942
vt 0.502417 0.924159
vt 0.491083 0.985986
vt 0.496750 0.996290
vt 0.491083 0.996290
vt 0.389069 0.975682
vt 0.502417 0.985986
vt 0.389069 0.985986
vt 0.496750 0.996290
vt 0.502417 0.985986
vt 0.502417 0.996290
vt 0.502417 0.975681
vt 0.389069 0.965377
vt 0.502417 0.965377
vt 0.502417 0.965377
vt 0.389069 0.924160
vt 0.502417 0.924159
vt 0.389069 0.924159
vt 0.502417 0.882942
vt 0.502417 0.924159
vt 0.491083 0.985986
vt 0.496750 0.996290
vt 0.491083 0.996290
vt 0.389069 0.975682
vt 0.502417 0.985986
vt 0.389069 0.985986
vt 0.496750 0.996290
vt 0.502417 0.985986
vt 0.502417 0.996290
vt 0.502417 0.975681
vt 0.389069 0.965377
vt 0.502417 0.965377
vt 0.502417 0.965377
vt 0.389069 0.924160
vt 0.502417 0.924159
vt 0.389069 0.924159
vt 0.502417 0.882942
vt 0.502417 0.924159
vt 0.491083 0.996290
vt 0.496750 0.985986
vt 0.496750 0.996290
vt 0.389069 0.975682
vt 0.502417 0.985986
vt 0.389069 0.985986
vt 0.496750 0.985986
vt 0.502417 0.996290
vt 0.496750 0.996290
vt 0.502417 0.975681
vt 0.389069 0.965377
vt 0.502417 0.965377
vt 0.502417 0.924159
vt 0.389069 0.965377
vt 0.389069 0.924160
vt 0.389069 0.924159
vt 0.502417 0.882942
vt 0.502417 0.924159
vt 0.491083 0.985986
vt 0.496750 0.996290
vt 0.491083 0.996290
vt 0.389069 0.975682
vt 0.502417 0.985986
vt 0.389069 0.985986
vt 0.496750 0.996290
vt 0.502417 0.985986
vt 0.502417 0.996290
vt 0.502417 0.975681
vt 0.389069 0.965377
vt 0.502417 0.965377
vt 0.502417 0.965377
vt 0.389069 0.924160
vt 0.502417 0.924159
vt 0.389069 0.924159
vt 0.502417 0.882942
vt 0.502417 0.924159
vt 0.491083 0.996290
vt 0.496750 0.985986
vt 0.496750 0.996290
vt 0.389069 0.975682
vt 0.502417 0.985986
vt 0.389069 0.985986
vt 0.496750 0.985986
vt 0.502417 0.996290
vt 0.496750 0.996290
vt 0.502417 0.975681
vt 0.389069 0.965377
vt 0.502417 0.965377
vt 0.502417 0.965377
vt 0.389069 0.924160
vt 0.502417 0.924159
vt 0.389069 0.924159
vt 0.502417 0.882942
vt 0.502417 0.924159
vt 0.491083 0.996290
vt 0.496750 0.985986
vt 0.496750 0.996290
vt 0.389069 0.975682
vt 0.502417 0.985986
vt 0.389069 0.985986
vt 0.496750 0.985986
vt 0.502417 0.996290
vt 0.496750 0.996290
vt 0.502417 0.975681
vt 0.389069 0.965377
vt 0.502417 0.965377
vt 0.502417 0.965377
vt 0.389069 0.924160
vt 0.502417 0.924159
vt 0.389069 0.924159
vt 0.502417 0.882942
vt 0.502417 0.924159
vt 0.491083 0.985986
vt 0.496750 0.996290
vt 0.491083 0.996290
vt 0.389069 0.975682
vt 0.502417 0.985986
vt 0.389069 0.985986
vt 0.496750 0.996290
vt 0.502417 0.985986
vt 0.502417 0.996290
vt 0.502417 0.975681
vt 0.389069 0.965377
vt 0.502417 0.965377
vt 0.502417 0.965377
vt 0.389069 0.924160
vt 0.502417 0.924159
vt 0.389069 0.924159
vt 0.502417 0.882942
vt 0.502417 0.924159
vt 0.491083 0.985986
vt 0.496750 0.996290
vt 0.491083 0.996290
vt 0.389069 0.975682
vt 0.502417 0.985986
vt 0.389069 0.985986
vt 0.496750 0.996290
vt 0.502417 0.985986
vt 0.502417 0.996290
vt 0.502417 0.975681
vt 0.389069 0.965377
vt 0.502417 0.965377
vt 0.389069 0.965377
vt 0.389069 0.882942
vt 0.496750 0.985986
vt 0.502417 0.975682
vt 0.496750 0.985986
vt 0.389069 0.975682
vt 0.389069 0.965377
vt 0.389069 0.882942
vt 0.496750 0.985986
vt 0.502417 0.975682
vt 0.496750 0.985986
vt 0.389069 0.975682
vt 0.389069 0.965377
vt 0.389069 0.882942
vt 0.491083 0.985986
vt 0.502417 0.975682
vt 0.502417 0.985986
vt 0.389069 0.975682
vt 0.502417 0.965377
vt 0.389069 0.882942
vt 0.496750 0.985986
vt 0.502417 0.975682
vt 0.496750 0.985986
vt 0.389069 0.975682
vt 0.389069 0.965377
vt 0.389069 0.882942
vt 0.491083 0.985986
vt 0.502417 0.975682
vt 0.502417 0.985986
vt 0.389069 0.975682
vt 0.389069 0.965377
vt 0.389069 0.882942
vt 0.491083 0.985986
vt 0.502417 0.975682
vt 0.502417 0.985986
vt 0.389069 0.975682
vt 0.389069 0.965377
vt 0.389069 0.882942
vt 0.496750 0.985986
vt 0.502417 0.975682
vt 0.496750 0.985986
vt 0.389069 0.975682
vt 0.389069 0.965377
vt 0.389069 0.882942
vt 0.496750 0.985986
vt 0.502417 0.975682
vt 0.496750 0.985986
vt 0.389069 0.975682
vn -0.0000 -0.9997 0.0239
vn 0.0000 0.9997 -0.0238
vn 1.0000 -0.0000 -0.0000
vn -0.0000 -0.0000 1.0000
vn -1.0000 -0.0000 -0.0000
vn -0.0000 -0.0449 -0.9990
vn 0.0000 -0.9803 0.1976
vn -0.0000 0.9803 -0.1975
vn 0.0000 0.1054 0.9944
vn -0.0000 -0.2858 -0.9583
vn 0.0000 -0.9940 0.1095
vn -0.0000 0.9942 -0.1079
vn -0.0000 0.2587 0.9660
vn 0.0000 -0.0085 -1.0000
vn 0.0000 -0.9583 -0.2858
vn -0.0000 0.9624 0.2717
vn -0.0000 -0.0225 0.9997
vn -0.0000 0.6525 -0.7578
vn -0.0000 -0.3827 -0.9239
vn 0.0000 0.3809 0.9246
vn 0.0000 -0.8547 0.5191
vn 0.0000 0.9538 -0.3003
vn -0.0000 -0.2155 -0.9765
vn 0.0000 0.2154 0.9765
vn -0.0000 -0.9679 0.2512
vn 0.0000 0.9811 -0.1935
vn -0.0000 -0.1904 -0.9817
vn 0.0000 0.1904 0.9817
vn -0.0000 -0.9848 0.1737
vn 0.0000 0.9848 -0.1736
vn -0.0000 -0.9848 0.1736
vn 0.0000 -0.9997 0.0238
vn -0.0000 0.9624 0.2718
vn 0.0000 0.9811 -0.1934
s off
f 59/73/9 61/74/9 58/75/9
f 65/76/10 63/77/10 62/78/10
f 62/79/11 59/80/11 58/81/11
f 63/82/12 60/83/12 59/84/12
f 60/85/13 65/86/13 61/87/13
f 58/88/14 65/89/14 62/90/14
f 67/91/15 69/92/15 66/93/15
f 73/94/16 71/95/16 70/96/16
f 70/97/11 67/98/11 66/99/11
f 71/100/17 68/101/17 67/102/17
f 68/103/13 73/104/13 69/105/13
f 66/106/18 73/107/18 70/108/18
f 75/109/19 77/110/19 74/111/19
f 81/112/20 79/113/20 78/114/20
f 74/115/11 79/116/11 75/117/11
f 79/118/21 76/119/21 75/120/21
f 80/121/13 77/122/13 76/123/13
f 74/124/22 81/125/22 78/126/22
f 82/127/23 84/128/23 85/129/23
f 89/130/24 87/131/24 86/132/24
f 86/133/11 83/134/11 82/135/11
f 87/136/25 84/137/25 83/138/25
f 84/139/13 89/140/13 85/141/13
f 82/142/26 89/143/26 86/144/26
f 91/145/27 93/146/27 90/147/27
f 97/148/28 95/149/28 94/150/28
f 90/151/11 95/152/11 91/153/11
f 95/154/29 92/155/29 91/156/29
f 96/157/13 93/158/13 92/159/13
f 90/160/30 97/161/30 94/162/30
f 99/163/31 101/164/31 98/165/31
f 105/166/32 103/167/32 102/168/32
f 98/169/11 103/170/11 99/171/11
f 103/172/33 100/173/33 99/174/33
f 104/175/13 101/176/13 100/177/13
f 98/178/34 105/179/34 102/180/34
f 107/181/35 109/182/35 106/183/35
f 113/184/36 111/185/36 110/186/36
f 110/187/11 107/188/11 106/189/11
f 111/190/37 108/191/37 107/192/37
f 108/193/13 113/194/13 109/195/13
f 106/196/38 113/197/38 110/198/38
f 115/199/35 117/200/35 114/201/35
f 121/202/36 119/203/36 118/204/36
f 118/205/11 115/206/11 114/207/11
f 119/208/39 116/209/39 115/210/39
f 116/211/13 121/212/13 117/213/13
f 114/214/38 121/215/38 118/216/38
f 59/73/40 60/217/40 61/74/40
f 65/76/10 64/218/10 63/77/10
f 62/79/11 63/219/11 59/80/11
f 63/82/12 64/220/12 60/83/12
f 60/85/13 64/221/13 65/86/13
f 58/88/14 61/222/14 65/89/14
f 67/91/15 68/223/15 69/92/15
f 73/94/16 72/224/16 71/95/16
f 70/97/11 71/225/11 67/98/11
f 71/100/17 72/226/17 68/101/17
f 68/103/13 72/227/13 73/104/13
f 66/106/18 69/228/18 73/107/18
f 75/109/19 76/229/19 77/110/19
f 81/112/20 80/230/20 79/113/20
f 74/115/11 78/231/11 79/116/11
f 79/118/21 80/232/21 76/119/21
f 80/121/13 81/233/13 77/122/13
f 74/124/22 77/234/22 81/125/22
f 82/127/23 83/235/23 84/128/23
f 89/130/41 88/236/41 87/131/41
f 86/133/11 87/237/11 83/134/11
f 87/136/25 88/238/25 84/137/25
f 84/139/13 88/239/13 89/140/13
f 82/142/26 85/240/26 89/143/26
f 91/145/27 92/241/27 93/146/27
f 97/148/28 96/242/28 95/149/28
f 90/151/11 94/243/11 95/152/11
f 95/154/29 96/244/29 92/155/29
f 96/157/13 97/245/13 93/158/13
f 90/160/30 93/246/30 97/161/30
f 99/163/31 100/247/31 101/164/31
f 105/166/32 104/248/32 103/167/32
f 98/169/11 102/249/11 103/170/11
f 103/172/33 104/250/33 100/173/33
f 104/175/13 105/251/13 101/176/13
f 98/178/42 101/252/42 105/179/42
f 107/181/35 108/253/35 109/182/35
f 113/184/36 112/254/36 111/185/36
f 110/187/11 111/255/11 107/188/11
f 111/190/39 112/256/39 108/191/39
f 108/193/13 112/257/13 113/194/13
f 106/196/38 109/258/38 113/197/38
f 115/199/35 116/259/35 117/200/35
f 121/202/36 120/260/36 119/203/36
f 118/205/11 119/261/11 115/206/11
f 119/208/37 120/262/37 116/209/37
f 116/211/13 120/263/13 121/212/13
f 114/214/38 117/264/38 121/215/38
