# Blender v2.79 (sub 0) OBJ File: 'WaterPlane.blend'
# www.blender.org
o Grid
v -1.000000 0.000000 1.000000
v -0.777778 0.000000 1.000000
v -0.555556 0.000000 1.000000
v -0.333333 0.000000 1.000000
v -0.111111 0.000000 1.000000
v 0.111111 0.000000 1.000000
v 0.333333 0.000000 1.000000
v 0.555556 0.000000 1.000000
v 0.777778 0.000000 1.000000
v 1.000000 0.000000 1.000000
v -1.000000 0.000000 0.777778
v -0.777778 0.000000 0.777778
v -0.555556 0.000000 0.777778
v -0.333333 0.000000 0.777778
v -0.111111 0.000000 0.777778
v 0.111111 0.000000 0.777778
v 0.333333 0.000000 0.777778
v 0.555556 0.000000 0.777778
v 0.777778 0.000000 0.777778
v 1.000000 0.000000 0.777778
v -1.000000 0.000000 0.555556
v -0.777778 0.000000 0.555556
v -0.555556 0.000000 0.555556
v -0.333333 0.000000 0.555556
v -0.111111 0.000000 0.555556
v 0.111111 0.000000 0.555556
v 0.333333 0.000000 0.555556
v 0.555556 0.000000 0.555556
v 0.777778 0.000000 0.555556
v 1.000000 0.000000 0.555556
v -1.000000 0.000000 0.333333
v -0.777778 0.000000 0.333333
v -0.555556 0.000000 0.333333
v -0.333333 0.000000 0.333333
v -0.111111 0.000000 0.333333
v 0.111111 0.000000 0.333333
v 0.333333 0.000000 0.333333
v 0.555556 0.000000 0.333333
v 0.777778 0.000000 0.333333
v 1.000000 0.000000 0.333333
v -1.000000 0.000000 0.111111
v -0.777778 0.000000 0.111111
v -0.555556 0.000000 0.111111
v -0.333333 0.000000 0.111111
v -0.111111 0.000000 0.111111
v 0.111111 0.000000 0.111111
v 0.333333 0.000000 0.111111
v 0.555556 0.000000 0.111111
v 0.777778 0.000000 0.111111
v 1.000000 0.000000 0.111111
v -1.000000 0.000000 -0.111111
v -0.777778 0.000000 -0.111111
v -0.555556 0.000000 -0.111111
v -0.333333 0.000000 -0.111111
v -0.111111 0.000000 -0.111111
v 0.111111 0.000000 -0.111111
v 0.333333 0.000000 -0.111111
v 0.555556 0.000000 -0.111111
v 0.777778 0.000000 -0.111111
v 1.000000 0.000000 -0.111111
v -1.000000 0.000000 -0.333333
v -0.777778 0.000000 -0.333333
v -0.555556 0.000000 -0.333333
v -0.333333 0.000000 -0.333333
v -0.111111 0.000000 -0.333333
v 0.111111 0.000000 -0.333333
v 0.333333 0.000000 -0.333333
v 0.555556 0.000000 -0.333333
v 0.777778 0.000000 -0.333333
v 1.000000 0.000000 -0.333333
v -1.000000 0.000000 -0.555556
v -0.777778 0.000000 -0.555556
v -0.555556 0.000000 -0.555556
v -0.333333 0.000000 -0.555556
v -0.111111 0.000000 -0.555556
v 0.111111 0.000000 -0.555556
v 0.333333 0.000000 -0.555556
v 0.555556 0.000000 -0.555556
v 0.777778 0.000000 -0.555556
v 1.000000 0.000000 -0.555556
v -1.000000 0.000000 -0.777778
v -0.777778 0.000000 -0.777778
v -0.555556 0.000000 -0.777778
v -0.333333 0.000000 -0.777778
v -0.111111 0.000000 -0.777778
v 0.111111 0.000000 -0.777778
v 0.333333 0.000000 -0.777778
v 0.555556 0.000000 -0.777778
v 0.777778 0.000000 -0.777778
v 1.000000 0.000000 -0.777778
v -1.000000 0.000000 -1.000000
v -0.777778 0.000000 -1.000000
v -0.555556 0.000000 -1.000000
v -0.333333 0.000000 -1.000000
v -0.111111 0.000000 -1.000000
v 0.111111 0.000000 -1.000000
v 0.333333 0.000000 -1.000000
v 0.555556 0.000000 -1.000000
v 0.777778 0.000000 -1.000000
v 1.000000 0.000000 -1.000000
vt 0.083635 0.000125
vt 0.000317 0.111140
vt 0.000345 0.000087
vt 0.166926 0.000163
vt 0.083607 0.111178
vt 0.250216 0.000201
vt 0.166897 0.111217
vt 0.333506 0.000240
vt 0.250187 0.111255
vt 0.416796 0.000278
vt 0.333477 0.111293
vt 0.500086 0.000316
vt 0.416767 0.111332
vt 0.583376 0.000355
vt 0.500058 0.111370
vt 0.666667 0.000393
vt 0.583348 0.111408
vt 0.749957 0.000431
vt 0.666638 0.111446
vt 0.000288 0.222194
vt 0.083578 0.222232
vt 0.166868 0.222270
vt 0.250158 0.222309
vt 0.333448 0.222347
vt 0.416739 0.222385
vt 0.500029 0.222423
vt 0.583319 0.222462
vt 0.749928 0.111485
vt 0.666609 0.222500
vt 0.000259 0.333247
vt 0.083549 0.333285
vt 0.166839 0.333324
vt 0.250130 0.333362
vt 0.333420 0.333400
vt 0.416710 0.333439
vt 0.500000 0.333477
vt 0.583290 0.333515
vt 0.749899 0.222538
vt 0.666580 0.333554
vt 0.000230 0.444301
vt 0.083521 0.444339
vt 0.166811 0.444377
vt 0.250101 0.444416
vt 0.333391 0.444454
vt 0.416681 0.444492
vt 0.499971 0.444531
vt 0.583261 0.444569
vt 0.749870 0.333592
vt 0.666552 0.444607
vt 0.000202 0.555354
vt 0.083492 0.555393
vt 0.166782 0.555431
vt 0.250072 0.555469
vt 0.333362 0.555508
vt 0.416652 0.555546
vt 0.499943 0.555584
vt 0.583233 0.555622
vt 0.749842 0.444646
vt 0.666523 0.555661
vt 0.000173 0.666408
vt 0.083463 0.666446
vt 0.166753 0.666484
vt 0.250043 0.666523
vt 0.333334 0.666561
vt 0.416624 0.666599
vt 0.499914 0.666638
vt 0.583204 0.666676
vt 0.749813 0.555699
vt 0.666494 0.666714
vt 0.000144 0.777461
vt 0.083434 0.777500
vt 0.166724 0.777538
vt 0.250015 0.777576
vt 0.333305 0.777615
vt 0.416595 0.777653
vt 0.499885 0.777691
vt 0.583175 0.777730
vt 0.749784 0.666753
vt 0.666465 0.777768
vt 0.000115 0.888515
vt 0.083406 0.888553
vt 0.166696 0.888592
vt 0.249986 0.888630
vt 0.333276 0.888668
vt 0.416566 0.888706
vt 0.499856 0.888745
vt 0.583147 0.888783
vt 0.749756 0.777806
vt 0.666437 0.888821
vt 0.000087 0.999568
vt 0.083377 0.999607
vt 0.166667 0.999645
vt 0.249957 0.999683
vt 0.333247 0.999722
vt 0.416537 0.999760
vt 0.499828 0.999798
vt 0.583118 0.999837
vt 0.749727 0.888860
vt 0.666408 0.999875
vt 0.749698 0.999913
vn 0.0000 1.0000 0.0000
s 1
f 2/1/1 11/2/1 1/3/1
f 3/4/1 12/5/1 2/1/1
f 4/6/1 13/7/1 3/4/1
f 5/8/1 14/9/1 4/6/1
f 6/10/1 15/11/1 5/8/1
f 7/12/1 16/13/1 6/10/1
f 8/14/1 17/15/1 7/12/1
f 9/16/1 18/17/1 8/14/1
f 10/18/1 19/19/1 9/16/1
f 12/5/1 21/20/1 11/2/1
f 13/7/1 22/21/1 12/5/1
f 14/9/1 23/22/1 13/7/1
f 15/11/1 24/23/1 14/9/1
f 16/13/1 25/24/1 15/11/1
f 17/15/1 26/25/1 16/13/1
f 18/17/1 27/26/1 17/15/1
f 19/19/1 28/27/1 18/17/1
f 20/28/1 29/29/1 19/19/1
f 22/21/1 31/30/1 21/20/1
f 23/22/1 32/31/1 22/21/1
f 24/23/1 33/32/1 23/22/1
f 25/24/1 34/33/1 24/23/1
f 26/25/1 35/34/1 25/24/1
f 27/26/1 36/35/1 26/25/1
f 28/27/1 37/36/1 27/26/1
f 29/29/1 38/37/1 28/27/1
f 30/38/1 39/39/1 29/29/1
f 32/31/1 41/40/1 31/30/1
f 33/32/1 42/41/1 32/31/1
f 34/33/1 43/42/1 33/32/1
f 35/34/1 44/43/1 34/33/1
f 36/35/1 45/44/1 35/34/1
f 37/36/1 46/45/1 36/35/1
f 38/37/1 47/46/1 37/36/1
f 39/39/1 48/47/1 38/37/1
f 40/48/1 49/49/1 39/39/1
f 42/41/1 51/50/1 41/40/1
f 43/42/1 52/51/1 42/41/1
f 44/43/1 53/52/1 43/42/1
f 45/44/1 54/53/1 44/43/1
f 46/45/1 55/54/1 45/44/1
f 47/46/1 56/55/1 46/45/1
f 48/47/1 57/56/1 47/46/1
f 49/49/1 58/57/1 48/47/1
f 50/58/1 59/59/1 49/49/1
f 52/51/1 61/60/1 51/50/1
f 53/52/1 62/61/1 52/51/1
f 54/53/1 63/62/1 53/52/1
f 55/54/1 64/63/1 54/53/1
f 56/55/1 65/64/1 55/54/1
f 57/56/1 66/65/1 56/55/1
f 58/57/1 67/66/1 57/56/1
f 59/59/1 68/67/1 58/57/1
f 60/68/1 69/69/1 59/59/1
f 62/61/1 71/70/1 61/60/1
f 63/62/1 72/71/1 62/61/1
f 64/63/1 73/72/1 63/62/1
f 65/64/1 74/73/1 64/63/1
f 66/65/1 75/74/1 65/64/1
f 67/66/1 76/75/1 66/65/1
f 68/67/1 77/76/1 67/66/1
f 69/69/1 78/77/1 68/67/1
f 70/78/1 79/79/1 69/69/1
f 72/71/1 81/80/1 71/70/1
f 73/72/1 82/81/1 72/71/1
f 74/73/1 83/82/1 73/72/1
f 75/74/1 84/83/1 74/73/1
f 76/75/1 85/84/1 75/74/1
f 77/76/1 86/85/1 76/75/1
f 78/77/1 87/86/1 77/76/1
f 79/79/1 88/87/1 78/77/1
f 80/88/1 89/89/1 79/79/1
f 82/81/1 91/90/1 81/80/1
f 83/82/1 92/91/1 82/81/1
f 84/83/1 93/92/1 83/82/1
f 85/84/1 94/93/1 84/83/1
f 86/85/1 95/94/1 85/84/1
f 87/86/1 96/95/1 86/85/1
f 88/87/1 97/96/1 87/86/1
f 89/89/1 98/97/1 88/87/1
f 90/98/1 99/99/1 89/89/1
f 2/1/1 12/5/1 11/2/1
f 3/4/1 13/7/1 12/5/1
f 4/6/1 14/9/1 13/7/1
f 5/8/1 15/11/1 14/9/1
f 6/10/1 16/13/1 15/11/1
f 7/12/1 17/15/1 16/13/1
f 8/14/1 18/17/1 17/15/1
f 9/16/1 19/19/1 18/17/1
f 10/18/1 20/28/1 19/19/1
f 12/5/1 22/21/1 21/20/1
f 13/7/1 23/22/1 22/21/1
f 14/9/1 24/23/1 23/22/1
f 15/11/1 25/24/1 24/23/1
f 16/13/1 26/25/1 25/24/1
f 17/15/1 27/26/1 26/25/1
f 18/17/1 28/27/1 27/26/1
f 19/19/1 29/29/1 28/27/1
f 20/28/1 30/38/1 29/29/1
f 22/21/1 32/31/1 31/30/1
f 23/22/1 33/32/1 32/31/1
f 24/23/1 34/33/1 33/32/1
f 25/24/1 35/34/1 34/33/1
f 26/25/1 36/35/1 35/34/1
f 27/26/1 37/36/1 36/35/1
f 28/27/1 38/37/1 37/36/1
f 29/29/1 39/39/1 38/37/1
f 30/38/1 40/48/1 39/39/1
f 32/31/1 42/41/1 41/40/1
f 33/32/1 43/42/1 42/41/1
f 34/33/1 44/43/1 43/42/1
f 35/34/1 45/44/1 44/43/1
f 36/35/1 46/45/1 45/44/1
f 37/36/1 47/46/1 46/45/1
f 38/37/1 48/47/1 47/46/1
f 39/39/1 49/49/1 48/47/1
f 40/48/1 50/58/1 49/49/1
f 42/41/1 52/51/1 51/50/1
f 43/42/1 53/52/1 52/51/1
f 44/43/1 54/53/1 53/52/1
f 45/44/1 55/54/1 54/53/1
f 46/45/1 56/55/1 55/54/1
f 47/46/1 57/56/1 56/55/1
f 48/47/1 58/57/1 57/56/1
f 49/49/1 59/59/1 58/57/1
f 50/58/1 60/68/1 59/59/1
f 52/51/1 62/61/1 61/60/1
f 53/52/1 63/62/1 62/61/1
f 54/53/1 64/63/1 63/62/1
f 55/54/1 65/64/1 64/63/1
f 56/55/1 66/65/1 65/64/1
f 57/56/1 67/66/1 66/65/1
f 58/57/1 68/67/1 67/66/1
f 59/59/1 69/69/1 68/67/1
f 60/68/1 70/78/1 69/69/1
f 62/61/1 72/71/1 71/70/1
f 63/62/1 73/72/1 72/71/1
f 64/63/1 74/73/1 73/72/1
f 65/64/1 75/74/1 74/73/1
f 66/65/1 76/75/1 75/74/1
f 67/66/1 77/76/1 76/75/1
f 68/67/1 78/77/1 77/76/1
f 69/69/1 79/79/1 78/77/1
f 70/78/1 80/88/1 79/79/1
f 72/71/1 82/81/1 81/80/1
f 73/72/1 83/82/1 82/81/1
f 74/73/1 84/83/1 83/82/1
f 75/74/1 85/84/1 84/83/1
f 76/75/1 86/85/1 85/84/1
f 77/76/1 87/86/1 86/85/1
f 78/77/1 88/87/1 87/86/1
f 79/79/1 89/89/1 88/87/1
f 80/88/1 90/98/1 89/89/1
f 82/81/1 92/91/1 91/90/1
f 83/82/1 93/92/1 92/91/1
f 84/83/1 94/93/1 93/92/1
f 85/84/1 95/94/1 94/93/1
f 86/85/1 96/95/1 95/94/1
f 87/86/1 97/96/1 96/95/1
f 88/87/1 98/97/1 97/96/1
f 89/89/1 99/99/1 98/97/1
f 90/98/1 100/100/1 99/99/1
