# Blender v2.79 (sub 0) OBJ File: ''
# www.blender.org
mtllib Test.mtl
o Cube_Cube.001
v 7.000000 1.000000 1.000000
v 7.000000 -1.000000 1.000000
v 7.000000 1.000000 -1.000000
v 7.000000 -1.000000 -1.000000
v -7.000000 1.000000 1.000000
v -7.000000 -1.000000 1.000000
v -7.000000 1.000000 -1.000000
v -7.000000 -1.000000 -1.000000
v -4.200000 1.000000 -1.000000
v -1.400000 1.000000 -1.000000
v 1.400000 1.000000 -1.000000
v 4.200000 1.000000 -1.000000
v 4.200000 -1.000000 -1.000000
v 1.400000 -1.000000 -1.000000
v -1.400000 -1.000000 -1.000000
v -4.200000 -1.000000 -1.000000
v 4.200000 1.000000 1.000000
v 1.400000 1.000000 1.000000
v -1.400000 1.000000 1.000000
v -4.200000 1.000000 1.000000
v -4.200000 -1.000000 1.000000
v -1.400000 -1.000000 1.000000
v 1.400000 -1.000000 1.000000
v 4.200000 -1.000000 1.000000
v 7.000000 -9.000000 1.000000
v 7.000000 -9.000000 -1.000000
v -4.200000 -9.000000 -1.000000
v -7.000000 -9.000000 -1.000000
v -7.000000 -9.000000 1.000000
v 4.200000 -9.000000 1.000000
v 4.200000 -9.000000 -1.000000
v -4.200000 -9.000000 1.000000
v 7.000000 -11.000000 1.000000
v 7.000000 -11.000000 -1.000000
v -4.200000 -11.000000 -1.000000
v -7.000000 -11.000000 -1.000000
v -7.000000 -11.000000 1.000000
v 4.200000 -11.000000 1.000000
v 4.200000 -11.000000 -1.000000
v -4.200000 -11.000000 1.000000
vt 0.046112 0.886704
vt 0.019443 0.896658
vt 0.030346 0.862860
vt 0.003911 0.187454
vt 0.019384 0.102557
vt 0.014731 0.225453
vt 0.017153 0.000034
vt 0.030319 0.132376
vt 0.027778 0.790392
vt 0.022370 0.764202
vt 0.022350 0.233980
vt 0.017239 0.999966
vt 0.003512 0.874588
vt 0.004050 0.817434
vt 0.008634 0.871813
vt 0.303827 0.985576
vt -0.029460 0.985576
vt 0.303827 0.509451
vt 0.014796 0.775494
vt 0.046112 0.102756
vt 0.016348 0.406113
vt 0.018628 0.407465
vt 0.018638 0.592081
vt 0.014911 0.599971
vt 0.019010 0.596276
vt 0.019003 0.403139
vt 0.006666 0.125993
vt 0.009871 0.126064
vt 0.011170 0.131324
vt 0.067514 0.030272
vt 0.082633 0.000034
vt 0.082633 0.030272
vt 0.000034 0.122443
vt 0.027804 0.205834
vt 0.000920 0.130561
vt 0.000511 0.883176
vt 0.005798 0.877650
vt 0.003170 0.879335
vt 0.006113 0.874597
vt 0.004451 0.875647
vt 0.003355 0.126105
vt 0.006082 0.125350
vt 0.003194 0.124353
vt 0.004872 0.877623
vt 0.082633 0.030339
vt 0.067514 0.060577
vt 0.067514 0.030339
vt 0.062727 0.290808
vt 0.067447 0.036240
vt 0.056833 0.267068
vt 0.067447 0.264522
vt 0.055904 0.000034
vt 0.057119 0.051811
vt 0.046179 0.041342
vt 0.061948 0.257623
vt 0.014883 0.400939
vt 0.637114 0.509451
vt 0.970402 0.509451
vt 0.970402 0.985576
vt 0.637114 0.985576
vt -0.029460 0.509451
vt 0.016368 0.594262
vt 0.067514 0.000034
vt 0.082633 0.060577
vn 1.0000 0.0000 0.0000
vn 0.0000 0.0000 -1.0000
vn -1.0000 0.0000 0.0000
vn 0.0000 0.0000 1.0000
vn 0.0000 1.0000 0.0000
vn 0.0000 -1.0000 0.0000
usemtl None
s off
f 2/1/1 3/2/1 1/3/1
f 16/4/2 7/5/2 9/6/2
f 8/7/3 5/8/3 7/5/3
f 24/9/4 1/3/4 17/10/4
f 7/5/5 20/11/5 9/6/5
f 4/12/2 31/13/2 13/14/2
f 13/14/3 30/15/3 24/9/3
f 23/16/4 24/17/4 18/18/4
f 12/19/5 1/3/5 3/2/5
f 6/20/4 20/11/4 5/8/4
f 10/21/5 19/22/5 18/23/5
f 4/12/2 12/19/2 3/2/2
f 14/24/6 23/25/6 22/26/6
f 29/27/4 40/28/4 32/29/4
f 31/30/3 38/31/3 30/32/3
f 16/4/2 28/33/2 8/7/2
f 8/7/3 29/27/3 6/20/3
f 21/34/1 27/35/1 16/4/1
f 6/20/4 32/29/4 21/34/4
f 2/1/1 26/36/1 4/12/1
f 24/9/4 25/37/4 2/1/4
f 34/38/6 38/39/6 39/40/6
f 35/41/6 37/42/6 36/43/6
f 30/15/4 33/44/4 25/37/4
f 27/35/2 36/43/2 28/33/2
f 32/45/1 35/46/1 27/47/1
f 26/36/2 39/40/2 31/13/2
f 28/33/3 37/42/3 29/27/3
f 25/37/1 34/38/1 26/36/1
f 32/48/5 31/49/5 27/50/5
f 40/51/4 30/52/4 32/48/4
f 39/53/2 27/50/2 31/49/2
f 38/54/6 35/55/6 39/53/6
f 15/56/2 16/4/2 10/21/2
f 2/1/1 4/12/1 3/2/1
f 16/4/2 8/7/2 7/5/2
f 8/7/3 6/20/3 5/8/3
f 24/9/4 2/1/4 1/3/4
f 7/5/5 5/8/5 20/11/5
f 4/12/2 26/36/2 31/13/2
f 13/14/3 31/13/3 30/15/3
f 19/57/4 20/58/4 21/59/4
f 22/60/4 23/16/4 18/18/4
f 19/57/4 21/59/4 22/60/4
f 24/17/4 17/61/4 18/18/4
f 18/18/4 19/57/4 22/60/4
f 12/19/5 17/10/5 1/3/5
f 6/20/4 21/34/4 20/11/4
f 17/10/5 12/19/5 11/62/5
f 10/21/5 9/6/5 20/11/5
f 17/10/5 11/62/5 18/23/5
f 20/11/5 19/22/5 10/21/5
f 18/23/5 11/62/5 10/21/5
f 4/12/2 13/14/2 12/19/2
f 21/34/6 16/4/6 15/56/6
f 14/24/6 13/14/6 24/9/6
f 21/34/6 15/56/6 22/26/6
f 24/9/6 23/25/6 14/24/6
f 22/26/6 15/56/6 14/24/6
f 29/27/4 37/42/4 40/28/4
f 31/30/3 39/63/3 38/31/3
f 16/4/2 27/35/2 28/33/2
f 8/7/3 28/33/3 29/27/3
f 21/34/1 32/29/1 27/35/1
f 6/20/4 29/27/4 32/29/4
f 2/1/1 25/37/1 26/36/1
f 24/9/4 30/15/4 25/37/4
f 34/38/6 33/44/6 38/39/6
f 35/41/6 40/28/6 37/42/6
f 30/15/4 38/39/4 33/44/4
f 27/35/2 35/41/2 36/43/2
f 32/45/1 40/64/1 35/46/1
f 26/36/2 34/38/2 39/40/2
f 28/33/3 36/43/3 37/42/3
f 25/37/1 33/44/1 34/38/1
f 32/48/5 30/52/5 31/49/5
f 40/51/4 38/54/4 30/52/4
f 39/53/2 35/55/2 27/50/2
f 38/54/6 40/51/6 35/55/6
f 11/62/2 12/19/2 13/14/2
f 14/24/2 15/56/2 10/21/2
f 11/62/2 13/14/2 14/24/2
f 16/4/2 9/6/2 10/21/2
f 10/21/2 11/62/2 14/24/2
