# Blender v2.79 (sub 0) OBJ File: ''
# www.blender.org
mtllib TestOBJ2.mtl
o Cube_Cube.001
v -1.000000 -1.000000 1.000000
v -3.800000 1.000000 4.500000
v -1.000000 -1.000000 -1.000000
v -1.000000 1.000000 -1.000000
v 1.000000 -1.000000 1.000000
v 1.000000 1.000000 1.000000
v 1.000000 -1.000000 -1.000000
v 3.500000 1.000000 -4.600000
vt 0.999900 0.999900
vt 0.000100 0.000100
vt 0.000100 0.999900
vt 0.999900 0.999900
vt 0.000100 0.000100
vt 0.000100 0.999900
vt 0.999900 0.000100
vt 0.000100 0.000100
vt 0.999900 0.999900
vt 0.000100 0.000100
vt 0.000100 0.999900
vt 0.999900 0.999900
vt 0.000100 0.000100
vt 0.000100 0.999900
vt 0.999900 0.000100
vt 0.999900 0.000100
vt 0.999900 0.999900
vt 0.999900 0.000100
vn -1.0000 0.0000 0.0000
vn 0.0000 0.0000 -1.0000
vn 1.0000 0.0000 0.0000
vn 0.0000 0.0000 1.0000
vn 0.0000 -1.0000 0.0000
vn 0.0000 1.0000 0.0000
vn -0.8115 -0.4132 -0.4132
vn -0.5298 -0.5298 -0.6623
vn 0.8456 -0.3775 0.3775
vn 0.5076 -0.5076 0.6962
usemtl None
s off
f 1/1/1 4/2/1 3/3/1
f 4/4/2 7/5/2 3/3/2
f 7/6/3 6/7/3 5/8/3
f 6/9/4 1/10/4 5/11/4
f 7/12/5 1/10/5 3/3/5
f 4/4/6 6/13/6 8/14/6
f 1/1/7 2/15/7 4/2/7
f 4/4/8 8/16/8 7/5/8
f 7/6/9 8/17/9 6/7/9
f 6/9/10 2/15/10 1/10/10
f 7/12/5 5/18/5 1/10/5
f 4/4/6 2/15/6 6/13/6
