# Blender v2.79 (sub 0) OBJ File: 'PirateShip.blend'
# www.blender.org
o Ship_Cube.001
v -9.900000 -40.000000 6.300001
v -10.267676 -37.907154 5.378372
v -9.900000 -40.000000 -6.300001
v -10.267676 -37.907154 -5.378372
v 9.900000 -40.000000 6.300001
v 8.910000 -38.000000 5.600000
v 9.900000 -40.000000 -6.300001
v 8.910000 -38.000000 -5.600000
v -21.779999 -36.000000 0.000000
v -20.409750 -34.346024 0.000000
v 20.409750 -34.346024 0.000000
v 21.779999 -36.000000 0.000000
v -8.910000 -38.000000 5.600000
v -8.910000 -38.000000 -5.600000
v -21.779999 -34.000000 0.000000
v -9.900000 -38.000000 6.300001
v -9.900000 -38.000000 -6.300001
v 10.267676 -37.907154 -5.378372
v 10.267676 -37.907154 5.378372
v 9.900000 -38.000000 -6.300001
v 9.900000 -38.000000 6.300001
v 21.779999 -34.000000 0.000000
v -9.900000 -35.000000 6.300001
v -9.900000 -35.000000 -6.300001
v 9.900000 -35.000000 -6.300001
v 9.900000 -35.000000 6.300001
v -21.779999 -31.000000 0.000000
v 21.779999 -31.000000 0.000000
v -10.267676 -34.907154 5.378372
v -10.267676 -34.907154 -5.378372
v -20.409750 -31.346024 0.000000
v -8.910000 -35.000000 5.600000
v -8.910000 -35.000000 -5.600000
v 8.910000 -35.000000 -5.600000
v 8.910000 -35.000000 5.600000
v 10.267676 -34.907154 -5.378372
v 10.267676 -34.907154 5.378372
v 20.409750 -31.346024 0.000000
v -10.000000 -35.000000 1.000000
v -1.000000 0.000000 1.000000
v -10.000000 -35.000000 -1.000000
v -1.000000 0.000000 -1.000000
v -9.000001 -35.000000 1.000000
v 0.000000 0.000000 1.000000
v -9.000001 -35.000000 -1.000000
v 0.000000 0.000000 -1.000000
v 10.000000 -35.000000 1.000000
v 1.000000 0.000000 1.000000
v 10.000000 -35.000000 -1.000000
v 1.000000 0.000000 -1.000000
v 9.000001 -35.000000 1.000000
v 9.000001 -35.000000 -1.000000
vt 0.418859 0.967445
vt 0.389458 0.943489
vt 0.389458 0.919533
vt 0.467860 0.991401
vt 0.418859 0.991401
vt 0.689222 0.900717
vt 0.717028 0.893198
vt 0.717028 0.977895
vt 0.421199 0.965019
vt 0.469426 0.988596
vt 0.421199 0.988596
vt 0.745473 0.932851
vt 0.717028 0.932851
vt 0.576942 0.841537
vt 0.562721 0.824529
vt 0.576942 0.824529
vt 0.469426 0.965019
vt 0.498362 0.941441
vt 0.555349 0.802507
vt 0.541690 0.802507
vt 0.548520 0.767838
vt 0.467860 0.967445
vt 0.497261 0.943489
vt 0.568359 0.852857
vt 0.524096 0.852857
vt 0.546227 0.764330
vt 0.689222 0.975994
vt 0.660777 0.975994
vt 0.674999 0.893198
vt 0.392263 0.941441
vt 0.392263 0.917864
vt 0.498362 0.917864
vt 0.469426 0.929652
vt 0.498362 0.882498
vt 0.562721 0.802850
vt 0.555349 0.795079
vt 0.562721 0.767838
vt 0.572466 0.804568
vt 0.610199 0.764801
vt 0.610199 0.804568
vt 0.562721 0.824529
vt 0.578719 0.796184
vt 0.578719 0.824529
vt 0.568359 0.836001
vt 0.612623 0.764330
vt 0.612623 0.836001
vt 0.421199 0.929652
vt 0.578719 0.796184
vt 0.592940 0.767838
vt 0.592940 0.796184
vt 0.467860 0.931511
vt 0.418859 0.931511
vt 0.492326 0.963106
vt 0.464002 0.964685
vt 0.466237 0.963106
vt 0.439453 0.894326
vt 0.454587 0.977043
vt 0.452373 0.974873
vt 0.424319 0.977043
vt 0.439453 0.886238
vt 0.483174 0.927563
vt 0.454587 0.929738
vt 0.456269 0.927563
vt 0.483174 0.888413
vt 0.484856 0.929738
vt 0.456269 0.888413
vt 0.484856 0.886238
vt 0.454587 0.886238
vt 0.492326 0.896444
vt 0.464002 0.898023
vt 0.466237 0.896444
vt 0.409185 0.894326
vt 0.424319 0.977043
vt 0.422105 0.974873
vt 0.394050 0.977043
vt 0.409185 0.886238
vt 0.592940 0.795906
vt 0.607162 0.767838
vt 0.607162 0.795906
vt 0.547540 0.814965
vt 0.522614 0.802222
vt 0.547540 0.764801
vt 0.541690 0.795844
vt 0.533463 0.802576
vt 0.537577 0.767838
vt 0.497261 0.919533
vt 0.497261 0.883599
vt 0.562721 0.796184
vt 0.578719 0.767838
vt 0.578719 0.796184
vt 0.572466 0.802222
vt 0.547540 0.814965
vt 0.547540 0.764801
vt 0.542409 0.888904
vt 0.557656 0.982190
vt 0.542409 0.982190
vt 0.609705 0.982222
vt 0.604316 0.888911
vt 0.609705 0.888904
vt 0.572903 0.982190
vt 0.557656 0.888904
vt 0.572903 0.888904
vt 0.598928 0.982222
vt 0.604316 0.888911
vt 0.604316 0.982229
vt 0.615095 0.890427
vt 0.609705 0.891189
vt 0.609705 0.890427
vt 0.609705 0.889666
vt 0.615095 0.888904
vt 0.615095 0.889666
vt 0.588150 0.888904
vt 0.572903 0.982190
vt 0.572903 0.888904
vt 0.593539 0.982222
vt 0.598928 0.888911
vt 0.598928 0.982229
vt 0.527162 0.982190
vt 0.542408 0.888904
vt 0.542409 0.982190
vt 0.593539 0.982222
vt 0.588151 0.888911
vt 0.593539 0.888904
vt 0.615095 0.890427
vt 0.609705 0.889666
vt 0.615095 0.889666
vt 0.620486 0.889666
vt 0.745473 0.893198
vt 0.562721 0.841537
vt 0.555349 0.830091
vt 0.572466 0.764801
vt 0.562721 0.796184
vt 0.568359 0.764330
vt 0.392263 0.882498
vt 0.578719 0.767838
vt 0.389458 0.883599
vt 0.494562 0.964685
vt 0.426533 0.974873
vt 0.494562 0.898023
vt 0.396264 0.974873
vt 0.592940 0.767838
vt 0.522614 0.852386
vt 0.537577 0.830582
vt 0.562721 0.767838
vt 0.572466 0.852386
vt 0.557656 0.888904
vt 0.604316 0.982229
vt 0.557656 0.982190
vt 0.598928 0.888904
vt 0.615095 0.891189
vt 0.609705 0.888904
vt 0.588150 0.982190
vt 0.593539 0.888904
vt 0.527161 0.888904
vt 0.588150 0.982229
vt 0.609705 0.890427
vt 0.620486 0.888904
vn -0.4685 0.0000 -0.8835
vn 0.0000 0.0000 -1.0000
vn 0.3191 -0.9477 0.0000
vn 0.0000 0.0000 1.0000
vn 0.0000 -1.0000 0.0000
vn 0.0000 1.0000 0.0000
vn -0.4685 0.0000 0.8835
vn -0.3313 0.9435 0.0000
vn 0.4685 0.0000 -0.8835
vn 0.3313 0.9435 0.0000
vn -0.3191 -0.9477 0.0000
vn 0.4685 0.0000 0.8835
vn -1.0000 0.0000 0.0000
vn 1.0000 0.0000 0.0000
vn 0.2448 0.9696 0.0000
vn 0.3529 0.9345 -0.0466
vn 0.2420 0.9583 -0.1521
vn -0.2448 0.9696 0.0000
vn -0.3529 0.9345 0.0466
vn -0.2420 0.9583 0.1521
vn -0.9685 0.2490 0.0000
vn 0.9685 -0.2490 0.0000
vn 0.9685 0.2490 0.0000
vn -0.9685 -0.2490 0.0000
vn 0.2420 0.9583 0.1521
vn 0.3529 0.9345 0.0466
vn -0.2420 0.9583 -0.1521
vn -0.3529 0.9345 -0.0466
s off
f 17/1/1 9/2/1 15/3/1
f 17/1/2 7/4/2 3/5/2
f 5/6/3 7/7/3 12/8/3
f 21/9/4 1/10/4 5/11/4
f 7/7/5 1/12/5 3/13/5
f 14/14/6 6/15/6 8/16/6
f 16/17/7 9/18/7 1/10/7
f 18/19/8 19/20/8 11/21/8
f 20/22/9 12/23/9 7/4/9
f 2/24/10 4/25/10 10/26/10
f 3/27/11 1/28/11 9/29/11
f 21/9/12 12/30/12 22/31/12
f 15/32/7 23/33/7 27/34/7
f 11/35/7 36/36/7 18/37/7
f 2/38/13 30/39/13 4/40/13
f 8/41/4 33/42/4 14/43/4
f 18/44/14 37/45/14 19/46/14
f 22/31/12 26/47/12 21/9/12
f 14/48/14 32/49/14 13/50/14
f 17/1/2 25/51/2 20/22/2
f 15/3/1 24/52/1 17/1/1
f 21/9/4 23/33/4 16/17/4
f 29/53/15 24/54/15 30/55/15
f 31/56/16 23/57/16 29/58/16
f 31/56/17 24/59/17 27/60/17
f 33/61/6 23/62/6 32/63/6
f 34/64/6 24/65/6 33/61/6
f 35/66/6 25/67/6 34/64/6
f 32/63/6 26/68/6 35/66/6
f 36/69/18 26/70/18 37/71/18
f 38/72/19 25/73/19 36/74/19
f 38/72/20 26/75/20 28/76/20
f 6/77/13 34/78/13 8/79/13
f 10/80/9 29/81/9 2/82/9
f 11/83/1 37/84/1 38/85/1
f 22/86/9 25/51/9 28/87/9
f 13/88/2 35/89/2 6/90/2
f 10/91/12 30/92/12 31/93/12
f 40/94/21 41/95/21 39/96/21
f 42/97/2 45/98/2 41/99/2
f 46/100/22 43/101/22 45/102/22
f 43/103/4 40/104/4 39/105/4
f 45/106/5 39/107/5 41/108/5
f 42/109/6 44/110/6 46/111/6
f 49/112/23 48/113/23 47/114/23
f 52/115/2 50/116/2 49/117/2
f 51/118/24 46/119/24 52/120/24
f 51/121/4 48/122/4 44/123/4
f 47/124/5 52/125/5 49/126/5
f 44/110/6 50/127/6 46/111/6
f 17/1/1 3/5/1 9/2/1
f 17/1/2 20/22/2 7/4/2
f 21/9/4 16/17/4 1/10/4
f 7/7/5 5/128/5 1/12/5
f 14/14/6 13/129/6 6/15/6
f 16/17/7 15/32/7 9/18/7
f 20/22/9 22/86/9 12/23/9
f 21/9/12 5/11/12 12/30/12
f 15/32/7 16/17/7 23/33/7
f 11/35/7 38/130/7 36/36/7
f 2/38/13 29/131/13 30/39/13
f 8/41/4 34/132/4 33/42/4
f 18/44/14 36/133/14 37/45/14
f 22/31/12 28/134/12 26/47/12
f 14/48/14 33/135/14 32/49/14
f 17/1/2 24/52/2 25/51/2
f 15/3/1 27/136/1 24/52/1
f 21/9/4 26/47/4 23/33/4
f 29/53/15 23/137/15 24/54/15
f 31/56/25 27/60/25 23/57/25
f 31/56/26 30/138/26 24/59/26
f 33/61/6 24/65/6 23/62/6
f 34/64/6 25/67/6 24/65/6
f 35/66/6 26/68/6 25/67/6
f 32/63/6 23/62/6 26/68/6
f 36/69/18 25/139/18 26/70/18
f 38/72/27 28/76/27 25/73/27
f 38/72/28 37/140/28 26/75/28
f 6/77/13 35/141/13 34/78/13
f 10/80/9 31/142/9 29/81/9
f 11/83/1 19/143/1 37/84/1
f 22/86/9 20/22/9 25/51/9
f 13/88/2 32/144/2 35/89/2
f 10/91/12 4/145/12 30/92/12
f 40/94/21 42/146/21 41/95/21
f 42/97/2 46/147/2 45/98/2
f 46/100/22 44/148/22 43/101/22
f 43/103/4 44/149/4 40/104/4
f 45/106/5 43/150/5 39/107/5
f 42/109/6 40/151/6 44/110/6
f 49/112/23 50/152/23 48/113/23
f 52/115/2 46/153/2 50/116/2
f 51/118/24 44/154/24 46/119/24
f 51/121/4 47/155/4 48/122/4
f 47/124/5 51/156/5 52/125/5
f 44/110/6 48/157/6 50/127/6
