# Blender v2.79 (sub 0) OBJ File: ''
# www.blender.org
mtllib untitled.mtl
o Cube
v 1.000000 -1.000000 -1.000000
v 1.000000 -1.000000 1.000000
v -1.000000 -1.000000 1.000000
v -1.000000 -1.000000 -1.000000
v 1.000000 2.273949 -1.418583
v 0.999999 1.000000 1.000001
v -1.000000 1.000000 1.000000
v -1.000000 1.000000 -1.000000
vt 1.000000 0.000000
vt 0.000000 1.000000
vt 0.000000 0.000000
vt 1.000000 0.282095
vt 0.066534 1.000000
vt 0.000000 0.000000
vt 0.173070 1.000000
vt 1.000000 0.389117
vt 1.000000 1.000000
vt 0.000000 0.000000
vt 1.000000 1.000000
vt 0.000000 1.000000
vt 0.000000 0.000000
vt 1.000000 0.000000
vt 1.000000 0.997716
vt 0.000000 0.396658
vt 1.000000 0.000000
vt 0.933466 1.000000
vt 1.000000 0.000000
vt 0.000000 1.000000
vt 0.009946 1.000000
vn 0.0000 -1.0000 0.0000
vn -0.4224 0.8020 0.4224
vn 1.0000 0.0000 0.0000
vn 0.0000 -0.0000 1.0000
vn -1.0000 -0.0000 -0.0000
vn -0.1258 -0.1258 -0.9840
vn 0.0000 1.0000 0.0000
vn 0.0000 0.0000 -1.0000
usemtl Material
s off
f 2/1/1 4/2/1 1/3/1
f 8/4/2 6/5/2 5/6/2
f 1/7/3 6/8/3 2/9/3
f 6/10/4 3/11/4 2/12/4
f 3/11/5 8/13/5 4/14/5
f 1/15/6 8/16/6 5/17/6
f 2/1/1 3/11/1 4/2/1
f 8/4/7 7/18/7 6/5/7
f 1/7/3 5/6/3 6/8/3
f 6/10/4 7/19/4 3/11/4
f 3/11/5 7/20/5 8/13/5
f 1/15/8 4/21/8 8/16/8