# Blender v2.79 (sub 0) OBJ File: 'PirateShip.blend'
# www.blender.org
o Frame_Cube.002
v -1.000000 38.000000 16.000000
v -1.000000 40.000000 16.000000
v -1.000000 38.000000 -1.000000
v -1.000000 40.000000 -1.000000
v 1.000000 38.000000 16.000000
v 1.000000 40.000000 16.000000
v 1.000000 38.000000 -1.000000
v 1.000000 40.000000 -1.000000
v -1.000000 38.000000 13.800000
v -1.000000 40.000000 13.800000
v 1.000000 38.000000 13.800000
v 1.000000 40.000000 13.800000
v 50.000000 -10.000000 13.800000
v 50.000000 -10.000000 16.000000
v 48.000000 -10.000000 16.000000
v 48.000000 -10.000000 13.800000
v 1.000000 38.000000 16.000000
v 1.000000 40.000000 16.000000
v 1.000000 38.000000 -1.000000
v 1.000000 40.000000 -1.000000
v -1.000000 38.000000 16.000000
v -1.000000 40.000000 16.000000
v -1.000000 38.000000 -1.000000
v -1.000000 40.000000 -1.000000
v 1.000000 38.000000 13.800000
v 1.000000 40.000000 13.800000
v -1.000000 38.000000 13.800000
v -1.000000 40.000000 13.800000
v -50.000000 -10.000000 13.800000
v -50.000000 -10.000000 16.000000
v -48.000000 -10.000000 16.000000
v -48.000000 -10.000000 13.800000
v -1.000000 38.000000 -16.000000
v -1.000000 40.000000 -16.000000
v -1.000000 38.000000 1.000000
v -1.000000 40.000000 1.000000
v 1.000000 38.000000 -16.000000
v 1.000000 40.000000 -16.000000
v 1.000000 38.000000 1.000000
v 1.000000 40.000000 1.000000
v -1.000000 38.000000 -13.800000
v -1.000000 40.000000 -13.800000
v 1.000000 38.000000 -13.800000
v 1.000000 40.000000 -13.800000
v 50.000000 -10.000000 -13.800000
v 50.000000 -10.000000 -16.000000
v 48.000000 -10.000000 -16.000000
v 48.000000 -10.000000 -13.800000
v 1.000000 38.000000 -16.000000
v 1.000000 40.000000 -16.000000
v 1.000000 38.000000 1.000000
v 1.000000 40.000000 1.000000
v -1.000000 38.000000 -16.000000
v -1.000000 40.000000 -16.000000
v -1.000000 38.000000 1.000000
v -1.000000 40.000000 1.000000
v 1.000000 38.000000 -13.800000
v 1.000000 40.000000 -13.800000
v -1.000000 38.000000 -13.800000
v -1.000000 40.000000 -13.800000
v -50.000000 -10.000000 -13.800000
v -50.000000 -10.000000 -16.000000
v -48.000000 -10.000000 -16.000000
v -48.000000 -10.000000 -13.800000
vt 0.567300 0.883941
vt 0.606424 0.886604
vt 0.567300 0.886604
vt 0.617686 0.887658
vt 0.622973 0.883941
vt 0.622973 0.887658
vt 0.613995 0.886603
vt 0.617686 0.987775
vt 0.613900 0.985180
vt 0.613900 0.987775
vt 0.606424 0.987708
vt 0.610210 0.985113
vt 0.567300 0.889198
vt 0.561484 0.886604
vt 0.522360 0.990370
vt 0.516545 0.987775
vt 0.522360 0.987775
vt 0.561484 0.990370
vt 0.561484 0.987775
vt 0.606424 0.889198
vt 0.522360 0.985113
vt 0.561484 0.985113
vt 0.561484 0.883941
vt 0.567300 0.990368
vt 0.561484 0.987775
vt 0.567300 0.987775
vt 0.561484 0.889198
vt 0.522360 0.883941
vt 0.613900 0.883941
vt 0.606424 0.886604
vt 0.567300 0.883941
vt 0.567300 0.886604
vt 0.622973 0.883941
vt 0.617686 0.887658
vt 0.622973 0.887658
vt 0.613995 0.886603
vt 0.617686 0.987775
vt 0.617686 0.883941
vt 0.606424 0.987708
vt 0.613900 0.987775
vt 0.610210 0.985113
vt 0.561484 0.886604
vt 0.567300 0.889198
vt 0.516545 0.987775
vt 0.522360 0.990370
vt 0.522360 0.987775
vt 0.561484 0.990370
vt 0.561484 0.987775
vt 0.606424 0.889198
vt 0.522360 0.985113
vt 0.561484 0.985113
vt 0.561484 0.883941
vt 0.561484 0.987775
vt 0.567300 0.990368
vt 0.567300 0.987775
vt 0.561484 0.889198
vt 0.522360 0.883941
vt 0.613900 0.883941
vt 0.606424 0.886604
vt 0.567300 0.883941
vt 0.567300 0.886604
vt 0.622973 0.883941
vt 0.617686 0.887658
vt 0.622973 0.887658
vt 0.613995 0.886603
vt 0.617686 0.987775
vt 0.617686 0.883941
vt 0.606424 0.987708
vt 0.613900 0.987775
vt 0.610210 0.985113
vt 0.561484 0.886604
vt 0.567300 0.889198
vt 0.516545 0.987775
vt 0.522360 0.990370
vt 0.522360 0.987775
vt 0.561484 0.990370
vt 0.561484 0.987775
vt 0.606424 0.889198
vt 0.522360 0.985113
vt 0.561484 0.985113
vt 0.561484 0.883941
vt 0.561484 0.987775
vt 0.567300 0.990368
vt 0.567300 0.987775
vt 0.561484 0.889198
vt 0.522360 0.883941
vt 0.613900 0.883941
vt 0.567300 0.883941
vt 0.606424 0.886604
vt 0.567300 0.886604
vt 0.617686 0.887658
vt 0.622973 0.883941
vt 0.622973 0.887658
vt 0.613995 0.886603
vt 0.617686 0.987775
vt 0.613900 0.985180
vt 0.613900 0.987775
vt 0.606424 0.987708
vt 0.610210 0.985113
vt 0.567300 0.889198
vt 0.561484 0.886604
vt 0.522360 0.990370
vt 0.516545 0.987775
vt 0.522360 0.987775
vt 0.561484 0.990370
vt 0.561484 0.987775
vt 0.606424 0.889198
vt 0.522360 0.985113
vt 0.561484 0.985113
vt 0.561484 0.883941
vt 0.567300 0.990368
vt 0.561484 0.987775
vt 0.567300 0.987775
vt 0.561484 0.889198
vt 0.522360 0.883941
vt 0.613900 0.883941
vt 0.606424 0.883941
vt 0.617686 0.883941
vt 0.617686 0.883941
vt 0.610115 0.990370
vt 0.516545 0.990370
vt 0.561484 0.990368
vt 0.516545 0.883941
vt 0.610115 0.886536
vt 0.606424 0.883941
vt 0.617686 0.883941
vt 0.613900 0.985180
vt 0.610115 0.990370
vt 0.516545 0.990370
vt 0.561484 0.990368
vt 0.516545 0.883941
vt 0.610115 0.886536
vt 0.606424 0.883941
vt 0.617686 0.883941
vt 0.613900 0.985180
vt 0.610115 0.990370
vt 0.516545 0.990370
vt 0.561484 0.990368
vt 0.516545 0.883941
vt 0.610115 0.886536
vt 0.606424 0.883941
vt 0.617686 0.883941
vt 0.617686 0.883941
vt 0.610115 0.990370
vt 0.516545 0.990370
vt 0.561484 0.990368
vt 0.516545 0.883941
vt 0.610115 0.886536
vn -1.0000 0.0000 0.0000
vn 0.0000 0.0000 -1.0000
vn 0.0000 0.0000 1.0000
vn 0.0000 -1.0000 0.0000
vn 0.0000 1.0000 0.0000
vn 1.0000 0.0000 0.0000
vn -0.7145 -0.6996 0.0000
vn 0.7142 0.6999 0.0000
vn 0.7145 -0.6996 0.0000
vn -0.7142 0.6999 0.0000
s off
f 10/1/1 3/2/1 9/3/1
f 4/4/2 7/5/2 3/6/2
f 11/7/2 13/8/2 16/9/2
f 6/10/3 1/11/3 5/12/3
f 11/13/4 1/14/4 9/3/4
f 10/15/5 6/16/5 12/17/5
f 4/18/5 12/17/5 8/19/5
f 7/20/4 9/3/4 3/2/4
f 8/19/6 11/21/6 7/22/6
f 2/23/1 9/3/1 1/14/1
f 13/24/4 15/25/4 16/26/4
f 11/13/7 15/25/7 5/27/7
f 6/16/8 13/28/8 12/17/8
f 5/12/3 14/29/3 6/10/3
f 19/30/6 26/31/6 25/32/6
f 23/33/2 20/34/2 19/35/2
f 27/36/2 29/37/2 28/38/2
f 17/39/3 22/40/3 21/41/3
f 17/42/4 27/43/4 25/32/4
f 22/44/5 26/45/5 28/46/5
f 28/46/5 20/47/5 24/48/5
f 25/32/4 23/49/4 19/30/4
f 27/50/1 24/48/1 23/51/1
f 25/32/6 18/52/6 17/42/6
f 31/53/4 29/54/4 32/55/4
f 31/53/9 27/43/9 21/56/9
f 29/57/10 22/44/10 28/46/10
f 30/58/3 21/41/3 22/40/3
f 35/59/1 42/60/1 41/61/1
f 39/62/3 36/63/3 35/64/3
f 43/65/3 45/66/3 44/67/3
f 33/68/2 38/69/2 37/70/2
f 33/71/4 43/72/4 41/61/4
f 38/73/5 42/74/5 44/75/5
f 44/75/5 36/76/5 40/77/5
f 41/61/4 39/78/4 35/59/4
f 43/79/6 40/77/6 39/80/6
f 41/61/1 34/81/1 33/71/1
f 47/82/4 45/83/4 48/84/4
f 47/82/7 43/72/7 37/85/7
f 45/86/8 38/73/8 44/75/8
f 46/87/2 37/70/2 38/69/2
f 58/88/6 51/89/6 57/90/6
f 52/91/3 55/92/3 51/93/3
f 59/94/3 61/95/3 64/96/3
f 54/97/2 49/98/2 53/99/2
f 59/100/4 49/101/4 57/90/4
f 58/102/5 54/103/5 60/104/5
f 52/105/5 60/104/5 56/106/5
f 55/107/4 57/90/4 51/89/4
f 56/106/1 59/108/1 55/109/1
f 50/110/6 57/90/6 49/101/6
f 61/111/4 63/112/4 64/113/4
f 59/100/9 63/112/9 53/114/9
f 54/103/10 61/115/10 60/104/10
f 53/99/2 62/116/2 54/97/2
f 10/1/1 4/117/1 3/2/1
f 4/4/2 8/118/2 7/5/2
f 11/7/2 12/119/2 13/8/2
f 6/10/3 2/120/3 1/11/3
f 11/13/4 5/27/4 1/14/4
f 10/15/5 2/121/5 6/16/5
f 4/18/5 10/15/5 12/17/5
f 7/20/4 11/13/4 9/3/4
f 8/19/6 12/17/6 11/21/6
f 2/23/1 10/1/1 9/3/1
f 13/24/4 14/122/4 15/25/4
f 11/13/7 16/26/7 15/25/7
f 6/16/8 14/123/8 13/28/8
f 5/12/3 15/124/3 14/29/3
f 19/30/6 20/125/6 26/31/6
f 23/33/2 24/126/2 20/34/2
f 27/36/2 32/127/2 29/37/2
f 17/39/3 18/128/3 22/40/3
f 17/42/4 21/56/4 27/43/4
f 22/44/5 18/129/5 26/45/5
f 28/46/5 26/45/5 20/47/5
f 25/32/4 27/43/4 23/49/4
f 27/50/1 28/46/1 24/48/1
f 25/32/6 26/31/6 18/52/6
f 31/53/4 30/130/4 29/54/4
f 31/53/9 32/55/9 27/43/9
f 29/57/10 30/131/10 22/44/10
f 30/58/3 31/132/3 21/41/3
f 35/59/1 36/133/1 42/60/1
f 39/62/3 40/134/3 36/63/3
f 43/65/3 48/135/3 45/66/3
f 33/68/2 34/136/2 38/69/2
f 33/71/4 37/85/4 43/72/4
f 38/73/5 34/137/5 42/74/5
f 44/75/5 42/74/5 36/76/5
f 41/61/4 43/72/4 39/78/4
f 43/79/6 44/75/6 40/77/6
f 41/61/1 42/60/1 34/81/1
f 47/82/4 46/138/4 45/83/4
f 47/82/7 48/84/7 43/72/7
f 45/86/8 46/139/8 38/73/8
f 46/87/2 47/140/2 37/70/2
f 58/88/6 52/141/6 51/89/6
f 52/91/3 56/142/3 55/92/3
f 59/94/3 60/143/3 61/95/3
f 54/97/2 50/144/2 49/98/2
f 59/100/4 53/114/4 49/101/4
f 58/102/5 50/145/5 54/103/5
f 52/105/5 58/102/5 60/104/5
f 55/107/4 59/100/4 57/90/4
f 56/106/1 60/104/1 59/108/1
f 50/110/6 58/88/6 57/90/6
f 61/111/4 62/146/4 63/112/4
f 59/100/9 64/113/9 63/112/9
f 54/103/10 62/147/10 61/115/10
f 53/99/2 63/148/2 62/116/2
